<svg xmlns="http://www.w3.org/2000/svg" width="26" height="26" viewBox="0 0 26 26"><path d="M 13 0 C 5.8202983 0 -5.994861e-018 5.8202983 0 13 C 0 20.179702 5.8202983 26 13 26 C 20.179702 26 26 20.179702 26 13 L 25.5625 9.625 C 24.039641 3.9416145 18.883874 -2.2816191e-017 13 0 z M 6 8 L 14 8 L 14 9 L 6 9 L 6 8 z M 15 8 L 16 8 L 16 9 L 15 9 L 15 8 z M 17 8 L 18 8 L 18 9 L 17 9 L 17 8 z M 19 8 L 20 8 L 20 9 L 19 9 L 19 8 z M 6 10 L 20 10 L 20 14.5 L 20 18 L 6 18 L 6 10 z M 20 14.5 C 20 14.2382 19.761799 14 19.5 14 C 19.238201 14 19 14.2382 19 14.5 C 19 14.7618 19.238201 15 19.5 15 C 19.761799 15 20 14.7618 20 14.5 z M 7 12 L 7 15 C 7.0001537 15.3926 7.5660326 15.62125 7.84375 15.34375 L 8.5 14.71875 L 9.15625 15.34375 C 9.4339674 15.62125 9.9998463 15.3925 10 15 L 10 12 L 9 12 L 9 13.78125 L 8.84375 13.65625 C 8.6586218 13.47115 8.3413782 13.47115 8.15625 13.65625 L 8 13.78125 L 8 12 L 7 12 z M 11 12 L 11 15 C 11.000154 15.3926 11.566032 15.62125 11.84375 15.34375 L 12.5 14.71875 L 13.15625 15.34375 C 13.433968 15.62125 13.999846 15.3925 14 15 L 14 12 L 13 12 L 13 13.78125 L 12.84375 13.65625 C 12.658621 13.47115 12.341379 13.47115 12.15625 13.65625 L 12 13.78125 L 12 12 L 11 12 z M 15 12 L 15 15 C 15.000153 15.3926 15.566033 15.62125 15.84375 15.34375 L 16.5 14.71875 L 17.15625 15.34375 C 17.433967 15.62125 17.999847 15.3925 18 15 L 18 12 L 17 12 L 17 13.78125 L 16.84375 13.65625 C 16.658622 13.47115 16.341378 13.47115 16.15625 13.65625 L 16 13.78125 L 16 12 L 15 12 z " color="#000" overflow="visible" style="marker:none"/></svg>